<svg width="512" height="512" viewBox="0 0 512 512" fill="none" xmlns="http://www.w3.org/2000/svg">
<rect x="40" y="40" width="432" height="432" rx="216" fill="#DC0A2D"/>
<path d="M297.905 256C297.905 279.143 279.143 297.905 256 297.905C232.857 297.905 214.095 279.143 214.095 256C214.095 232.857 232.857 214.095 256 214.095C279.143 214.095 297.905 232.857 297.905 256Z" fill="white"/>
<path fill-rule="evenodd" clip-rule="evenodd" d="M256 432C344.665 432 418.017 366.435 430.218 281.143H327.136C316.782 310.439 288.842 331.429 256 331.429C223.158 331.429 195.218 310.439 184.863 281.143H81.7822C93.9823 366.435 167.334 432 256 432ZM184.863 230.857H81.7822C93.9823 145.565 167.334 80 256 80C344.665 80 418.017 145.565 430.218 230.857H327.136C316.782 201.561 288.842 180.571 256 180.571C223.158 180.571 195.218 201.561 184.863 230.857ZM297.905 256C297.905 279.143 279.143 297.905 256 297.905C232.857 297.905 214.095 279.143 214.095 256C214.095 232.857 232.857 214.095 256 214.095C279.143 214.095 297.905 232.857 297.905 256Z" fill="white"/>
</svg>
