<svg width="16" height="16" viewBox="0 0 16 16" fill="none" xmlns="http://www.w3.org/2000/svg">
<path d="M5.89997 11.6334C5.81108 11.5222 5.76386 11.4 5.7583 11.2667C5.75275 11.1334 5.79997 11.0167 5.89997 10.9167L8.8333 7.98336L5.8833 5.03336C5.79441 4.94447 5.75275 4.82502 5.7583 4.67502C5.76386 4.52502 5.81108 4.40558 5.89997 4.31669C6.01108 4.20558 6.13052 4.1528 6.2583 4.15836C6.38608 4.16391 6.49997 4.21669 6.59997 4.31669L9.91664 7.63336C9.97219 7.68891 10.0111 7.74447 10.0333 7.80002C10.0555 7.85558 10.0666 7.91669 10.0666 7.98336C10.0666 8.05002 10.0555 8.11113 10.0333 8.16669C10.0111 8.22224 9.97219 8.2778 9.91664 8.33336L6.61664 11.6334C6.51664 11.7334 6.39997 11.7806 6.26664 11.775C6.1333 11.7695 6.01108 11.7222 5.89997 11.6334V11.6334Z" fill="black"/>
</svg>
