<svg width="16" height="16" viewBox="0 0 16 16" fill="none" xmlns="http://www.w3.org/2000/svg">
<path d="M7.45008 12.9834L2.81675 8.35003C2.76119 8.29448 2.7223 8.23892 2.70008 8.18337C2.67786 8.12781 2.66675 8.0667 2.66675 8.00003C2.66675 7.93337 2.67786 7.87226 2.70008 7.8167C2.7223 7.76114 2.76119 7.70559 2.81675 7.65003L7.46675 3.00003C7.55564 2.91114 7.66675 2.8667 7.80008 2.8667C7.93341 2.8667 8.05008 2.9167 8.15008 3.0167C8.25008 3.1167 8.30008 3.23337 8.30008 3.3667C8.30008 3.50003 8.25008 3.6167 8.15008 3.7167L4.36675 7.50003H12.6334C12.7779 7.50003 12.8973 7.54725 12.9917 7.6417C13.0862 7.73614 13.1334 7.85559 13.1334 8.00003C13.1334 8.14448 13.0862 8.26392 12.9917 8.35837C12.8973 8.45281 12.7779 8.50003 12.6334 8.50003H4.36675L8.16675 12.3C8.25564 12.3889 8.30008 12.5 8.30008 12.6334C8.30008 12.7667 8.25008 12.8834 8.15008 12.9834C8.05008 13.0834 7.93341 13.1334 7.80008 13.1334C7.66675 13.1334 7.55008 13.0834 7.45008 12.9834V12.9834Z" fill="black"/>
</svg>
