<svg width="16" height="16" viewBox="0 0 16 16" fill="none" xmlns="http://www.w3.org/2000/svg">
<path d="M3.83325 12.6666C3.68881 12.6666 3.56936 12.6194 3.47492 12.525C3.38047 12.4305 3.33325 12.3111 3.33325 12.1666C3.33325 12.0222 3.38047 11.9027 3.47492 11.8083C3.56936 11.7138 3.68881 11.6666 3.83325 11.6666H12.1666C12.311 11.6666 12.4305 11.7138 12.5249 11.8083C12.6194 11.9027 12.6666 12.0222 12.6666 12.1666C12.6666 12.3111 12.6194 12.4305 12.5249 12.525C12.4305 12.6194 12.311 12.6666 12.1666 12.6666H3.83325ZM6.54992 7.26663H9.44992L8.03325 3.56663H7.96659L6.54992 7.26663ZM5.28325 9.99996C5.10547 9.99996 4.98881 9.94163 4.93325 9.82496C4.8777 9.70829 4.8777 9.56663 4.93325 9.39996L7.26659 3.18329C7.32214 3.03885 7.41936 2.91663 7.55825 2.81663C7.69714 2.71663 7.84436 2.66663 7.99992 2.66663C8.15547 2.66663 8.3027 2.71663 8.44159 2.81663C8.58047 2.91663 8.6777 3.03885 8.73325 3.18329L11.0666 9.39996C11.1221 9.56663 11.1221 9.70829 11.0666 9.82496C11.011 9.94163 10.8944 9.99996 10.7166 9.99996C10.6277 9.99996 10.5471 9.97496 10.4749 9.92496C10.4027 9.87496 10.3555 9.81663 10.3333 9.74996L9.68325 8.01663H6.29992L5.64992 9.74996C5.6277 9.81663 5.58047 9.87496 5.50825 9.92496C5.43603 9.97496 5.36103 9.99996 5.28325 9.99996Z" fill="black"/>
</svg>
