<svg width="16" height="16" viewBox="0 0 16 16" fill="none" xmlns="http://www.w3.org/2000/svg">
<path d="M4.78338 13.3333C4.62782 13.3333 4.50004 13.2722 4.40004 13.15C4.30004 13.0277 4.27226 12.8888 4.31671 12.7333L4.88338 10.5H2.96671C2.81115 10.5 2.6806 10.4361 2.57504 10.3083C2.46949 10.1805 2.43893 10.0388 2.48338 9.88329C2.5056 9.77218 2.56115 9.68051 2.65004 9.60829C2.73893 9.53607 2.84449 9.49996 2.96671 9.49996H5.13338L5.88338 6.49996H3.63338C3.47782 6.49996 3.34727 6.43607 3.24171 6.30829C3.13615 6.18051 3.1056 6.03885 3.15004 5.88329C3.17226 5.77218 3.22782 5.68051 3.31671 5.60829C3.4056 5.53607 3.51115 5.49996 3.63338 5.49996H6.13338L6.75004 3.03329C6.77226 2.92218 6.82504 2.83329 6.90838 2.76663C6.99171 2.69996 7.08893 2.66663 7.20004 2.66663C7.3556 2.66663 7.4806 2.72774 7.57504 2.84996C7.66949 2.97218 7.70004 3.11107 7.66671 3.26663L7.11671 5.49996H10.1334L10.75 3.03329C10.7723 2.92218 10.825 2.83329 10.9084 2.76663C10.9917 2.69996 11.0889 2.66663 11.2 2.66663C11.3556 2.66663 11.4806 2.72774 11.575 2.84996C11.6695 2.97218 11.7 3.11107 11.6667 3.26663L11.1167 5.49996H13.0334C13.1889 5.49996 13.3195 5.56385 13.425 5.69163C13.5306 5.8194 13.5612 5.96107 13.5167 6.11663C13.4945 6.22774 13.4389 6.3194 13.35 6.39163C13.2612 6.46385 13.1556 6.49996 13.0334 6.49996H10.8667L10.1167 9.49996H12.3667C12.5223 9.49996 12.6528 9.56385 12.7584 9.69163C12.8639 9.8194 12.8945 9.96107 12.85 10.1166C12.8278 10.2277 12.7723 10.3194 12.6834 10.3916C12.5945 10.4638 12.4889 10.5 12.3667 10.5H9.86671L9.25004 12.9666C9.22782 13.0555 9.1806 13.1388 9.10838 13.2166C9.03615 13.2944 8.92782 13.3333 8.78338 13.3333C8.62782 13.3333 8.50004 13.2722 8.40004 13.15C8.30004 13.0277 8.27226 12.8888 8.31671 12.7333L8.88338 10.5H5.86671L5.25004 12.9666C5.22782 13.0555 5.1806 13.1388 5.10838 13.2166C5.03615 13.2944 4.92782 13.3333 4.78338 13.3333ZM6.11671 9.49996H9.13338L9.88338 6.49996H6.86671L6.11671 9.49996Z" fill="black"/>
</svg>
